<svg width="36" height="36" viewBox="0 0 36 36" fill="none" xmlns="http://www.w3.org/2000/svg">
<path d="M22 21C22 19.895 18.866 19 15 19M22 21C22 22.105 18.866 23 15 23C11.134 23 8 22.105 8 21M22 21V25.937C22 27.076 18.866 28 15 28C11.134 28 8 27.077 8 25.937V21M22 21C25.824 21 29 20.013 29 19V9M15 19C11.134 19 8 19.895 8 21M15 19C10.582 19 7 18.013 7 17V12M15 10C10.582 10 7 10.895 7 12M7 12C7 13.105 10.582 14 15 14C15 15.013 18.253 16 22.077 16C25.901 16 29 15.013 29 14M29 9C29 7.895 25.9 7 22.077 7C18.254 7 15.154 7.895 15.154 9M29 9C29 10.105 25.9 11 22.077 11C18.254 11 15.154 10.105 15.154 9M15.154 9V19.166" stroke="#623E2A"/>
</svg>
